<svg width="520" height="516" viewBox="0 0 520 516" fill="none" xmlns="http://www.w3.org/2000/svg">
<path d="M159.883 215.337H93.4565V197.926H159.883V215.337Z" fill="#ECECEC"/>
<mask id="mask0_1212_89" style="mask-type:luminance" maskUnits="userSpaceOnUse" x="0" y="0" width="520" height="516">
<path d="M0 0H520V515.207H0V0Z" fill="white"/>
</mask>
<g mask="url(#mask0_1212_89)">
<path d="M131.795 233.676C131.788 233.669 131.781 233.563 131.774 233.36C131.769 233.127 131.762 232.833 131.752 232.466C131.741 231.647 131.724 230.505 131.702 229.04C131.676 226.035 131.638 221.713 131.589 216.265L131.795 216.469C116.627 216.499 92.5068 216.547 65.3721 216.6C65.5208 216.451 65.03 216.935 65.706 216.265V216.269V216.279V216.296V216.331V216.401V216.541V216.821V217.38V218.497C65.706 219.24 65.706 219.98 65.706 220.718C65.7049 222.194 65.7049 223.658 65.7039 225.112C65.7028 228.018 65.7008 230.877 65.6987 233.676L65.368 233.348C84.2835 233.407 100.834 233.46 112.706 233.497C118.619 233.537 123.364 233.568 126.678 233.591C128.29 233.609 129.553 233.624 130.456 233.634C130.863 233.642 131.189 233.649 131.444 233.655C131.67 233.662 131.788 233.669 131.795 233.676C131.802 233.683 131.698 233.691 131.487 233.698C131.242 233.703 130.93 233.71 130.54 233.718C129.653 233.729 128.415 233.743 126.833 233.762C123.536 233.783 118.818 233.815 112.937 233.854C101.008 233.893 84.376 233.944 65.368 234.004L65.0372 234.005L65.0362 233.676C65.0341 230.877 65.0331 228.018 65.031 225.112C65.031 223.658 65.03 222.194 65.03 220.718C65.03 219.98 65.03 219.24 65.0289 218.497V217.38V216.821V216.541V216.401V216.331V216.296V216.279V216.269V216.265C65.706 215.594 65.2192 216.079 65.3721 215.929C92.5068 215.983 116.627 216.03 131.795 216.061H132.003L132.001 216.265C131.952 221.765 131.913 226.127 131.887 229.162C131.866 230.607 131.849 231.734 131.836 232.543C131.828 232.894 131.821 233.175 131.816 233.4C131.808 233.59 131.802 233.683 131.795 233.676Z" fill="#E1E1E1"/>
<path d="M413.318 56.2091H346.891V38.7982H413.318V56.2091Z" fill="#ECECEC"/>
<path d="M385.446 73.9872C385.439 73.98 385.433 73.8739 385.425 73.6709C385.42 73.438 385.413 73.1444 385.404 72.7775C385.392 71.9583 385.376 70.8156 385.354 69.3514C385.328 66.3457 385.289 62.0241 385.24 56.5763L385.446 56.7803C370.279 56.8102 346.157 56.8576 319.023 56.9112C319.172 56.7618 318.681 57.2461 319.357 56.5763V56.5804V56.5897V56.6072V56.6423V56.7123V56.8525V57.1317V57.6912V58.8082C319.357 59.5511 319.357 60.291 319.356 61.0287C319.356 62.5053 319.356 63.9695 319.355 65.4235C319.353 68.3292 319.352 71.1876 319.35 73.9872L319.019 73.6585C337.935 73.7183 354.486 73.7708 366.357 73.8079C372.271 73.8481 377.015 73.8801 380.329 73.9017C381.941 73.9203 383.204 73.9347 384.108 73.945C384.514 73.9532 384.84 73.9604 385.096 73.9656C385.32 73.9728 385.439 73.98 385.446 73.9872C385.454 73.9944 385.35 74.0017 385.138 74.0089C384.893 74.014 384.581 74.0212 384.191 74.0295C383.305 74.0398 382.066 74.0542 380.484 74.0728C377.188 74.0944 372.469 74.1263 366.588 74.1655C354.659 74.2036 338.026 74.2551 319.019 74.3149L318.689 74.3159L318.688 73.9872C318.686 71.1876 318.685 68.3292 318.682 65.4235C318.682 63.9695 318.681 62.5053 318.681 61.0287C318.68 60.291 318.68 59.5511 318.68 58.8082V57.6912V57.1317V56.8525V56.7123V56.6423V56.6072V56.5897V56.5804V56.5763C319.357 55.9055 318.871 56.3908 319.023 56.2404C346.157 56.294 370.279 56.3414 385.446 56.3723H385.653L385.652 56.5763C385.603 62.0756 385.565 66.4384 385.539 69.472C385.517 70.9176 385.5 72.0449 385.488 72.8538C385.48 73.2051 385.472 73.4864 385.467 73.7111C385.46 73.9007 385.454 73.9944 385.446 73.9872Z" fill="#E1E1E1"/>
<path d="M458.372 271.491H348.201V119.519H458.372V271.491Z" fill="white"/>
<path d="M458.372 271.49C458.372 271.49 458.363 271.239 458.358 270.758C458.355 270.268 458.35 269.556 458.345 268.62C458.338 266.732 458.328 263.95 458.316 260.332C458.301 253.09 458.281 242.513 458.253 229.128C458.224 202.377 458.185 164.415 458.137 119.519L458.372 119.752C425.118 119.759 387.679 119.767 348.214 119.775H348.202L348.461 119.519C348.443 176.389 348.426 229.006 348.413 271.49L348.202 271.282C381.613 271.328 409.129 271.365 428.304 271.391C437.899 271.414 445.404 271.432 450.522 271.444C453.075 271.454 455.032 271.463 456.359 271.468C457.68 271.475 458.372 271.49 458.372 271.49C458.372 271.49 457.711 271.506 456.403 271.513C455.085 271.518 453.142 271.527 450.606 271.537C445.5 271.549 438.01 271.567 428.436 271.59C409.23 271.616 381.668 271.653 348.202 271.699L347.992 271.7V271.49C347.978 229.006 347.96 176.389 347.943 119.519V119.261H348.202H348.214C387.679 119.269 425.118 119.278 458.372 119.285H458.608L458.607 119.519C458.559 164.478 458.519 202.493 458.491 229.28C458.464 242.643 458.443 253.203 458.428 260.432C458.416 264.029 458.406 266.795 458.399 268.672C458.394 269.598 458.389 270.301 458.386 270.785C458.381 271.257 458.372 271.49 458.372 271.49Z" fill="#E1E1E1"/>
<path d="M445.142 205.339H359.304V199.861H445.142V205.339Z" fill="#F5F5F5"/>
<path d="M427.402 207.686H379.042V197.787H427.402V207.686Z" fill="#F5F5F5"/>
<path d="M395.568 184.371C398.101 184.371 399.323 182.801 399.323 179.933V163.792C399.323 160.923 398.101 159.354 395.522 159.354H391.722V184.371H395.568ZM395.613 156.171C400.545 156.171 402.809 159.13 402.809 163.971V179.798C402.809 184.595 400.545 187.553 395.613 187.553H388.192V156.171H395.613Z" fill="#E1E1E1"/>
<path d="M409.323 180.157C409.323 183.026 410.545 184.684 413.078 184.684C415.658 184.684 416.835 183.026 416.835 180.157V163.568C416.835 160.744 415.658 159.04 413.078 159.04C410.545 159.04 409.323 160.744 409.323 163.568V180.157ZM405.839 163.747C405.839 158.951 408.237 155.857 413.078 155.857C417.965 155.857 420.363 158.951 420.363 163.747V179.977C420.363 184.73 417.965 187.868 413.078 187.868C408.237 187.868 405.839 184.73 405.839 179.977V163.747Z" fill="#E1E1E1"/>
<path d="M397.849 250.182H394.001V215.965H397.849V250.182Z" fill="#E1E1E1"/>
<path d="M406.828 250.182V219.436H400.464V215.965H417.04V219.436H410.676V250.182H406.828Z" fill="#E1E1E1"/>
<path d="M362.171 158.769L366.348 173.725L370.026 169.59L376.151 179.911L372.093 162.154L368.3 166.419L362.171 158.769Z" fill="#F5F5F5"/>
<path d="M444.194 157.261L440.016 172.216L436.338 168.081L430.213 178.403L434.271 160.645L438.064 164.91L444.194 157.261Z" fill="#F5F5F5"/>
<path d="M402.699 126.906L397.259 144.748L403.67 142.886L403.207 157.26L410.584 136.65L403.97 138.57L402.699 126.906Z" fill="#E1E1E1"/>
<path d="M426.839 183.753H425.843V143.491H381.999V183.753H381.004V142.503H426.839V183.753Z" fill="#E1E1E1"/>
<path d="M426.839 256.474H381.004V215.224H381.999V255.487H425.843V215.224H426.839V256.474Z" fill="#E1E1E1"/>
<path d="M375.741 221.388H372.461C370.638 221.388 369.161 219.924 369.161 218.118V187.023C369.161 185.217 370.638 183.753 372.461 183.753H375.741C377.563 183.753 379.041 185.217 379.041 187.023V218.118C379.041 219.924 377.563 221.388 375.741 221.388Z" fill="#E1E1E1"/>
<path d="M433.982 221.388H430.702C428.879 221.388 427.402 219.924 427.402 218.118V187.023C427.402 185.217 428.879 183.753 430.702 183.753H433.982C435.804 183.753 437.282 185.217 437.282 187.023V218.118C437.282 219.924 435.804 221.388 433.982 221.388Z" fill="#E1E1E1"/>
<path d="M369.161 207.334H365.092V196.85H369.161V207.334Z" fill="#ECECEC"/>
<path d="M441.272 207.334H437.204V196.85H441.272V207.334Z" fill="#ECECEC"/>
<path d="M368.555 117.285L344.111 135.879L340.74 131.529L365.184 112.935L368.555 117.285Z" fill="#E1E1E1"/>
<path d="M465.098 260.331L440.654 278.925L437.283 274.574L461.726 255.981L465.098 260.331Z" fill="#E1E1E1"/>
<path d="M117.406 85.9743C117.399 85.9671 117.392 85.861 117.385 85.658C117.38 85.4251 117.373 85.1314 117.364 84.7646C117.352 83.9454 117.335 82.8027 117.313 81.3385C117.287 78.3328 117.249 74.0112 117.2 68.5634L117.406 68.7674C102.238 68.7973 78.1177 68.8447 50.9831 68.8983C51.1318 68.7489 50.6409 69.2332 51.3169 68.5634V68.5675V68.5768V68.5943V68.6294V68.6994V68.8396V69.1198V69.6793V70.7953C51.3169 71.5382 51.3169 72.2791 51.3169 73.0158C51.3159 74.4924 51.3159 75.9566 51.3159 77.4105C51.3138 80.3163 51.3117 83.1747 51.3096 85.9743L50.9789 85.6467C69.8944 85.7054 86.446 85.7579 98.3166 85.795C104.23 85.8352 108.975 85.8672 112.289 85.8888C113.901 85.9073 115.165 85.9218 116.067 85.9321C116.474 85.9403 116.799 85.9475 117.055 85.9527C117.281 85.9599 117.399 85.9671 117.406 85.9743C117.413 85.9815 117.309 85.9887 117.098 85.996C116.853 86.0011 116.541 86.0083 116.151 86.0166C115.264 86.0269 114.026 86.0413 112.444 86.0598C109.147 86.0815 104.429 86.1134 98.5475 86.1526C86.6187 86.1907 69.987 86.2422 50.9789 86.302L50.6482 86.303L50.6471 85.9743C50.6461 83.1747 50.644 80.3163 50.6419 77.4105C50.6419 75.9566 50.6409 74.4924 50.6409 73.0158C50.6409 72.2791 50.6409 71.5382 50.6409 70.7953L50.6399 69.6793V69.1198V68.8396V68.6994V68.6294V68.5943V68.5768V68.5675V68.5634C51.3179 67.8926 50.8302 68.3779 50.9831 68.2275C78.1177 68.2811 102.238 68.3285 117.406 68.3594H117.614L117.612 68.5634C117.563 74.0627 117.524 78.4255 117.498 81.4601C117.477 82.9047 117.46 84.032 117.448 84.8409C117.439 85.1922 117.432 85.4746 117.427 85.6982C117.419 85.8878 117.413 85.9815 117.406 85.9743Z" fill="#E1E1E1"/>
<path d="M126.413 68.5631C126.404 68.5549 126.396 68.4425 126.387 68.2313C126.38 67.9819 126.371 67.679 126.361 67.3091C126.346 66.4528 126.326 65.2874 126.3 63.818C126.269 60.7649 126.224 56.4537 126.169 51.1522L126.413 51.3933C116.073 51.417 102.007 51.451 86.5036 51.4871C86.1989 51.7869 86.9123 51.079 86.8395 51.1532V51.1584V51.1676V51.1852V51.2212V51.2923V51.4355V51.722V52.2929L86.8385 53.4315C86.8385 54.1878 86.8384 54.941 86.8374 55.6891C86.8374 57.1853 86.8353 58.6639 86.8353 60.1209C86.8301 63.0329 86.827 65.8572 86.8228 68.5631L86.5015 68.2437C98.0226 68.3055 107.942 68.358 115.052 68.3951C118.557 68.4322 121.369 68.4621 123.368 68.4838C124.302 68.5002 125.046 68.5136 125.611 68.5239C126.125 68.5373 126.399 68.5497 126.413 68.5631C126.426 68.5765 126.177 68.5889 125.688 68.6023C125.141 68.6126 124.419 68.626 123.512 68.6424C121.53 68.6641 118.745 68.694 115.269 68.7311C108.105 68.7682 98.111 68.8207 86.5015 68.8825L86.1791 68.8836L86.1781 68.5631C86.1749 65.8572 86.1708 63.0329 86.1666 60.1209C86.1656 58.6639 86.1645 57.1853 86.1635 55.6891C86.1625 54.941 86.1625 54.1878 86.1625 53.4315V52.2929V51.722V51.4355V51.2923V51.2212V51.1852V51.1676V51.1584V51.1532C86.0876 51.2243 86.8041 50.5164 86.5036 50.8163C102.007 50.8534 116.073 50.8863 126.413 50.9111H126.658L126.656 51.1522C126.601 56.5155 126.556 60.8762 126.525 63.9644C126.499 65.4111 126.479 66.5579 126.465 67.4018C126.446 68.1798 126.429 68.5796 126.413 68.5631Z" fill="#E1E1E1"/>
<path d="M99.6476 380.86C99.6403 380.852 99.6341 380.746 99.6268 380.543C99.6216 380.31 99.6143 380.017 99.606 379.65C99.5935 378.831 99.5769 377.688 99.555 376.224C99.529 373.218 99.4906 368.896 99.4417 363.449L99.6476 363.653C84.4802 363.683 60.3595 363.73 33.2249 363.784C33.3736 363.634 32.8827 364.118 33.5587 363.449V363.453V363.462V363.48V363.515V363.585V363.725V364.005V364.565V365.681C33.5587 366.423 33.5587 367.164 33.5587 367.901C33.5577 369.378 33.5577 370.842 33.5566 372.296C33.5556 375.202 33.5535 378.06 33.5514 380.86L33.2207 380.532C52.1362 380.592 68.6878 380.643 80.5584 380.68C86.4718 380.72 91.2163 380.752 94.5308 380.774C96.1428 380.793 97.4054 380.807 98.3091 380.817C98.7158 380.826 99.0413 380.833 99.2971 380.838C99.5228 380.845 99.6403 380.852 99.6476 380.86C99.6549 380.867 99.5509 380.874 99.3398 380.881C99.0943 380.886 98.7823 380.894 98.3923 380.902C97.5062 380.912 96.2676 380.927 94.6858 380.945C91.389 380.967 86.6705 380.999 80.7893 381.039C68.8605 381.076 52.2288 381.128 33.2207 381.187L32.89 381.189L32.889 380.86C32.8879 378.06 32.8858 375.202 32.8838 372.296C32.8838 370.842 32.8827 369.378 32.8827 367.901C32.8827 367.164 32.8827 366.423 32.8827 365.681L32.8817 364.565V364.005V363.725V363.585V363.515V363.48V363.462V363.453V363.449C33.5598 362.778 33.072 363.263 33.2249 363.113C60.3595 363.166 84.4802 363.215 99.6476 363.245H99.8556L99.8535 363.449C99.8046 368.949 99.7662 373.311 99.7402 376.345C99.7183 377.79 99.7017 378.917 99.6902 379.726C99.6809 380.078 99.6736 380.36 99.6684 380.583C99.6611 380.773 99.6549 380.867 99.6476 380.86Z" fill="#E1E1E1"/>
<path d="M108.654 363.448C108.646 363.44 108.638 363.328 108.629 363.117C108.622 362.867 108.613 362.564 108.602 362.194C108.588 361.337 108.568 360.173 108.542 358.703C108.511 355.65 108.466 351.339 108.411 346.038L108.654 346.279C98.3146 346.302 84.2486 346.336 68.7454 346.372C68.4406 346.672 69.1541 345.964 69.0813 346.039V346.044V346.053V346.071V346.107V346.178V346.321V346.607V347.178L69.0802 348.317C69.0802 349.073 69.0802 349.826 69.0802 350.574C69.0792 352.071 69.0782 353.549 69.0771 355.006C69.073 357.918 69.0688 360.743 69.0646 363.448L68.7422 363.129C80.2644 363.19 90.1839 363.243 97.2934 363.28C100.799 363.318 103.61 363.347 105.61 363.369C106.544 363.386 107.288 363.399 107.852 363.409C108.367 363.423 108.641 363.435 108.654 363.448C108.668 363.462 108.419 363.474 107.929 363.488C107.382 363.498 106.661 363.511 105.754 363.528C103.772 363.549 100.986 363.579 97.5107 363.616C90.3472 363.654 80.3518 363.706 68.7422 363.768L68.4209 363.769L68.4198 363.448C68.4167 360.743 68.4126 357.918 68.4084 355.006C68.4074 353.549 68.4063 352.071 68.4053 350.574C68.4042 349.826 68.4042 349.073 68.4042 348.317V347.178V346.607V346.321V346.178V346.107V346.071V346.053V346.044V346.039C68.3294 346.11 69.0459 345.402 68.7454 345.702C84.2486 345.739 98.3146 345.772 108.654 345.796H108.9L108.898 346.038C108.843 351.401 108.798 355.762 108.767 358.85C108.741 360.296 108.721 361.443 108.706 362.287C108.688 363.066 108.671 363.465 108.654 363.448Z" fill="#E1E1E1"/>
<path d="M432.794 380.498C432.787 380.491 432.781 380.385 432.773 380.182C432.768 379.949 432.761 379.656 432.752 379.289C432.74 378.47 432.723 377.327 432.702 375.863C432.676 372.857 432.637 368.535 432.588 363.088L432.794 363.292C417.627 363.321 393.505 363.369 366.371 363.422C366.521 363.273 366.029 363.757 366.705 363.088V363.092V363.101V363.118V363.153V363.224V363.364V363.644V364.203V365.319C366.705 366.062 366.705 366.803 366.705 367.54C366.704 369.017 366.704 370.481 366.703 371.935C366.702 374.84 366.7 377.699 366.698 380.498L366.367 380.171C385.283 380.231 401.834 380.282 413.705 380.319C419.618 380.359 424.363 380.391 427.677 380.413C429.289 380.431 430.553 380.446 431.456 380.456C431.862 380.464 432.188 380.472 432.444 380.477C432.668 380.484 432.787 380.491 432.794 380.498C432.801 380.506 432.697 380.513 432.486 380.52C432.241 380.525 431.929 380.532 431.539 380.541C430.653 380.551 429.414 380.565 427.832 380.584C424.535 380.606 419.817 380.638 413.936 380.677C402.007 380.715 385.375 380.766 366.367 380.826L366.036 380.827L366.035 380.498C366.034 377.699 366.032 374.84 366.03 371.935C366.03 370.481 366.029 369.017 366.029 367.54C366.029 366.803 366.029 366.062 366.029 365.319L366.028 364.203V363.644V363.364V363.224V363.153V363.118V363.101V363.092V363.088C366.705 362.417 366.218 362.902 366.371 362.752C393.505 362.805 417.627 362.854 432.794 362.883H433.002L433 363.088C432.951 368.587 432.913 372.95 432.887 375.984C432.865 377.429 432.848 378.556 432.837 379.365C432.827 379.716 432.82 379.998 432.815 380.222C432.808 380.412 432.801 380.506 432.794 380.498Z" fill="#E1E1E1"/>
<path d="M441.801 363.087C441.792 363.079 441.784 362.967 441.775 362.755C441.769 362.506 441.759 362.203 441.749 361.833C441.734 360.976 441.714 359.812 441.688 358.342C441.657 355.289 441.613 350.978 441.557 345.676L441.801 345.917C431.461 345.941 417.395 345.975 401.892 346.011C401.587 346.311 402.301 345.603 402.228 345.677V345.682V345.692V345.709V345.745V345.816V345.96V346.246V346.817L402.227 347.956C402.227 348.712 402.227 349.465 402.227 350.213C402.226 351.709 402.224 353.188 402.224 354.645C402.219 357.557 402.215 360.381 402.211 363.087L401.89 362.768C413.411 362.83 423.33 362.882 430.44 362.919C433.946 362.956 436.757 362.986 438.757 363.008C439.691 363.024 440.434 363.038 440.999 363.048C441.514 363.061 441.787 363.074 441.801 363.087C441.814 363.101 441.566 363.113 441.076 363.126C440.529 363.137 439.807 363.15 438.9 363.167C436.918 363.188 434.133 363.218 430.657 363.255C423.494 363.292 413.499 363.345 401.89 363.407L401.567 363.408L401.566 363.087C401.563 360.381 401.559 357.557 401.555 354.645C401.554 353.188 401.553 351.709 401.552 350.213C401.552 349.465 401.551 348.712 401.551 347.956V346.817V346.246V345.96V345.816V345.745V345.709V345.692V345.682V345.677C401.476 345.748 402.192 345.041 401.892 345.34C417.395 345.377 431.461 345.41 441.801 345.435H442.046L442.044 345.676C441.989 351.04 441.944 355.4 441.913 358.488C441.887 359.935 441.867 361.082 441.853 361.926C441.834 362.705 441.817 363.104 441.801 363.087Z" fill="#E1E1E1"/>
<path d="M435.487 415.675H450.664V469.791H435.487V415.675Z" fill="#ECECEC"/>
<path d="M419.535 420.006V403.179C419.535 401.896 420.584 400.856 421.88 400.856H464.271C465.565 400.856 466.616 401.896 466.616 403.179V420.006C466.616 421.289 465.565 422.33 464.271 422.33H421.88C420.584 422.33 419.535 421.289 419.535 420.006Z" fill="#ECECEC"/>
<path d="M419.535 420.006C419.581 419.992 419.487 420.509 419.963 421.246C420.206 421.596 420.62 421.985 421.231 422.155C421.83 422.318 422.604 422.202 423.442 422.225C426.855 422.204 431.733 422.175 437.745 422.14C443.795 422.124 450.982 422.104 458.959 422.083C459.956 422.081 460.967 422.08 461.99 422.078C462.5 422.077 463.014 422.077 463.531 422.076L464.305 422.072C464.536 422.072 464.766 422.024 464.984 421.947C465.88 421.63 466.457 420.713 466.353 419.706C466.352 418.649 466.351 417.583 466.35 416.507C466.348 412.202 466.346 407.747 466.345 403.182C466.365 402.156 465.509 401.223 464.492 401.135C463.412 401.112 462.24 401.128 461.132 401.123C458.887 401.121 456.676 401.12 454.504 401.119C450.16 401.113 445.968 401.108 441.975 401.104C437.983 401.094 434.189 401.086 430.637 401.078C428.862 401.073 427.147 401.067 425.499 401.063C424.675 401.06 423.867 401.057 423.078 401.054C422.683 401.053 422.292 401.051 421.905 401.05C421.546 401.046 421.201 401.131 420.89 401.285C420.271 401.598 419.837 402.208 419.744 402.858C419.686 403.513 419.722 404.247 419.707 404.908C419.7 406.255 419.693 407.525 419.686 408.714C419.668 411.082 419.653 413.126 419.64 414.811C419.619 416.457 419.601 417.748 419.589 418.663C419.578 419.08 419.569 419.411 419.563 419.665C419.553 419.891 419.544 420.006 419.535 420.006C419.525 420.006 419.516 419.891 419.507 419.665C419.5 419.411 419.491 419.08 419.481 418.663C419.468 417.748 419.451 416.457 419.43 414.811C419.416 413.126 419.402 411.082 419.383 408.714C419.377 407.525 419.369 406.255 419.362 404.908C419.373 404.223 419.325 403.566 419.384 402.805C419.487 402.042 419.987 401.323 420.714 400.949C421.075 400.763 421.491 400.659 421.905 400.661C422.292 400.66 422.683 400.658 423.078 400.657C423.867 400.654 424.675 400.651 425.499 400.649C427.147 400.644 428.862 400.639 430.637 400.634C434.189 400.625 437.983 400.617 441.975 400.609C445.968 400.604 450.16 400.599 454.504 400.592C456.676 400.591 458.887 400.59 461.132 400.589C462.265 400.596 463.355 400.573 464.549 400.603C465.833 400.712 466.912 401.888 466.886 403.182C466.884 407.747 466.883 412.202 466.881 416.507C466.88 417.583 466.879 418.649 466.878 419.706C467.007 420.816 466.281 422.07 465.162 422.428C464.889 422.525 464.601 422.583 464.312 422.584H463.531C463.014 422.584 462.5 422.583 461.99 422.581C460.967 422.58 459.956 422.578 458.959 422.577C450.982 422.556 443.795 422.536 437.745 422.52C431.733 422.484 426.855 422.455 423.442 422.434C423.021 422.43 422.622 422.426 422.247 422.422C421.88 422.423 421.504 422.416 421.184 422.308C420.535 422.109 420.112 421.681 419.872 421.306C419.632 420.919 419.558 420.576 419.535 420.351C419.512 420.123 419.535 420.006 419.535 420.006Z" fill="#E1E1E1"/>
<path d="M419.535 484.861V468.033C419.535 466.751 420.584 465.71 421.88 465.71H464.271C465.565 465.71 466.616 466.751 466.616 468.033V484.861C466.616 486.144 465.565 487.185 464.271 487.185H421.88C420.584 487.185 419.535 486.144 419.535 484.861Z" fill="#ECECEC"/>
<path d="M419.535 484.861C419.581 484.846 419.487 485.364 419.963 486.101C420.206 486.45 420.62 486.84 421.231 487.01C421.83 487.171 422.604 487.057 423.442 487.08C426.855 487.059 431.733 487.03 437.745 486.994C443.795 486.979 450.982 486.959 458.959 486.937C459.956 486.935 460.967 486.934 461.99 486.932C462.5 486.931 463.014 486.931 463.531 486.93L464.305 486.927C464.536 486.927 464.766 486.879 464.984 486.801C465.88 486.485 466.457 485.568 466.353 484.56C466.352 483.504 466.351 482.438 466.35 481.362C466.348 477.057 466.346 472.601 466.345 468.037C466.365 467.01 465.509 466.078 464.492 465.99C463.412 465.966 462.24 465.983 461.132 465.978C458.887 465.976 456.676 465.975 454.504 465.974C450.16 465.967 445.968 465.962 441.975 465.957C437.983 465.949 434.189 465.941 430.637 465.932C428.862 465.927 427.147 465.922 425.499 465.917C424.675 465.915 423.867 465.912 423.078 465.909C422.683 465.908 422.292 465.906 421.905 465.905C421.546 465.901 421.201 465.986 420.89 466.14C420.271 466.453 419.837 467.063 419.744 467.713C419.686 468.367 419.722 469.101 419.707 469.763C419.7 471.108 419.693 472.379 419.686 473.569C419.668 475.937 419.653 477.98 419.64 479.665C419.619 481.311 419.601 482.603 419.589 483.518C419.578 483.935 419.569 484.266 419.563 484.52C419.553 484.746 419.544 484.861 419.535 484.861C419.525 484.861 419.516 484.746 419.507 484.52C419.5 484.266 419.491 483.935 419.481 483.518C419.468 482.603 419.451 481.311 419.43 479.665C419.416 477.98 419.402 475.937 419.383 473.569C419.377 472.379 419.369 471.108 419.362 469.763C419.373 469.077 419.325 468.421 419.384 467.659C419.487 466.898 419.987 466.178 420.714 465.804C421.075 465.618 421.491 465.514 421.905 465.516C422.292 465.515 422.683 465.513 423.078 465.512C423.867 465.509 424.675 465.506 425.499 465.504C427.147 465.499 428.862 465.494 430.637 465.488C434.189 465.48 437.983 465.472 441.975 465.464C445.968 465.458 450.16 465.453 454.504 465.447C456.676 465.446 458.887 465.445 461.132 465.443C462.265 465.45 463.355 465.428 464.549 465.457C465.833 465.567 466.912 466.742 466.886 468.037C466.884 472.601 466.883 477.057 466.881 481.362C466.88 482.438 466.879 483.504 466.878 484.56C467.007 485.671 466.281 486.925 465.162 487.283C464.889 487.38 464.601 487.437 464.312 487.437L463.531 487.438C463.014 487.438 462.5 487.437 461.99 487.436C460.967 487.435 459.956 487.433 458.959 487.431C450.982 487.409 443.795 487.391 437.745 487.374C431.733 487.338 426.855 487.309 423.442 487.289C423.021 487.285 422.622 487.281 422.247 487.276C421.88 487.278 421.504 487.27 421.184 487.163C420.535 486.963 420.112 486.536 419.872 486.161C419.632 485.774 419.558 485.431 419.535 485.205C419.512 484.978 419.535 484.861 419.535 484.861Z" fill="#E1E1E1"/>
<path d="M453.355 486.877C453.205 486.877 453.085 482.207 453.085 476.447C453.085 470.685 453.205 466.016 453.355 466.016C453.505 466.016 453.626 470.685 453.626 476.447C453.626 482.207 453.505 486.877 453.355 486.877Z" fill="#E1E1E1"/>
<path d="M433.644 486.877C433.494 486.877 433.374 482.207 433.374 476.447C433.374 470.685 433.494 466.016 433.644 466.016C433.794 466.016 433.915 470.685 433.915 476.447C433.915 482.207 433.794 486.877 433.644 486.877Z" fill="#E1E1E1"/>
<path d="M453.355 422.093C453.205 422.093 453.085 417.423 453.085 411.663C453.085 405.901 453.205 401.232 453.355 401.232C453.505 401.232 453.626 405.901 453.626 411.663C453.626 417.423 453.505 422.093 453.355 422.093Z" fill="#E1E1E1"/>
<path d="M433.644 422.093C433.494 422.093 433.374 417.423 433.374 411.663C433.374 405.901 433.494 401.232 433.644 401.232C433.794 401.232 433.915 405.901 433.915 411.663C433.915 417.423 433.794 422.093 433.644 422.093Z" fill="#E1E1E1"/>
</g>
<mask id="mask1_1212_89" style="mask-type:luminance" maskUnits="userSpaceOnUse" x="0" y="0" width="520" height="516">
<path d="M0 0H520V515.207H0V0Z" fill="white"/>
</mask>
<g mask="url(#mask1_1212_89)">
<path d="M77.0506 124.589L78.2414 120.816C88.2847 89.0059 114.757 64.8303 147.557 58.9456C151.774 58.1893 156.047 57.7338 160.341 57.6009C191.257 56.6385 222.295 72.3833 239.914 97.9664C250.275 113.011 256.774 131.665 271.875 141.924C291.527 155.276 317.776 149.419 340.561 143.088C363.344 136.756 389.628 130.962 409.222 144.4C421.493 152.816 428.358 167.376 431.18 181.979C438.652 220.642 420.324 261.336 390.422 286.654C360.52 311.972 320.712 323.33 281.495 325.017C226.557 327.378 169.63 310.86 128.66 273.852C87.6877 236.844 65.0521 178.299 77.0506 124.589Z" fill="#F5F5F5"/>
</g>
<mask id="mask2_1212_89" style="mask-type:luminance" maskUnits="userSpaceOnUse" x="0" y="0" width="520" height="516">
<path d="M0 0H520V515.207H0V0Z" fill="white"/>
</mask>
<g mask="url(#mask2_1212_89)">
<path d="M487.118 487.184C487.118 487.333 385.426 487.452 260.011 487.452C134.553 487.452 32.8823 487.333 32.8823 487.184C32.8823 487.036 134.553 486.916 260.011 486.916C385.426 486.916 487.118 487.036 487.118 487.184Z" fill="#1A2E35"/>
</g>
<path d="M410.337 471.132H355.718V455.335H410.337V471.132Z" fill="#375A64"/>
<mask id="mask3_1212_89" style="mask-type:luminance" maskUnits="userSpaceOnUse" x="0" y="0" width="520" height="516">
<path d="M0 0H520V515.207H0V0Z" fill="white"/>
</mask>
<g mask="url(#mask3_1212_89)">
<path d="M360.089 487.184H343.105C341.81 487.184 340.761 486.145 340.761 484.861V442.861C340.761 441.578 341.81 440.538 343.105 440.538H360.089C361.384 440.538 362.434 441.578 362.434 442.861V484.861C362.434 486.145 361.384 487.184 360.089 487.184Z" fill="#375A64"/>
<path d="M360.089 487.184C360.074 487.138 360.597 487.232 361.34 486.76C361.693 486.519 362.086 486.109 362.258 485.504C362.421 484.91 362.306 484.144 362.328 483.313C362.309 479.931 362.278 475.099 362.242 469.142C362.226 463.148 362.207 456.027 362.185 448.123C362.183 447.135 362.182 446.134 362.18 445.121C362.179 444.615 362.179 444.106 362.178 443.594L362.174 442.827C362.174 442.597 362.126 442.37 362.048 442.154C361.728 441.266 360.803 440.693 359.786 440.797C358.72 440.798 357.643 440.799 356.557 440.8C352.212 440.802 347.715 440.804 343.108 440.805C342.072 440.786 341.131 441.634 341.043 442.642C341.019 443.711 341.035 444.873 341.029 445.971C341.028 448.195 341.027 450.385 341.026 452.538C341.02 456.842 341.015 460.994 341.009 464.951C341.001 468.906 340.993 472.665 340.984 476.185C340.979 477.943 340.974 479.642 340.969 481.275C340.967 482.091 340.964 482.891 340.961 483.674C340.96 484.065 340.957 484.453 340.956 484.835C340.952 485.192 341.039 485.534 341.194 485.842C341.51 486.455 342.125 486.885 342.782 486.977C343.442 487.034 344.182 486.998 344.85 487.013C346.208 487.021 347.491 487.028 348.692 487.034C351.082 487.052 353.144 487.067 354.845 487.08C356.506 487.101 357.81 487.119 358.733 487.13C359.154 487.141 359.488 487.15 359.745 487.157C359.973 487.166 360.089 487.175 360.089 487.184C360.089 487.194 359.973 487.203 359.745 487.212C359.488 487.218 359.154 487.228 358.733 487.238C357.81 487.25 356.506 487.267 354.845 487.289C353.145 487.301 351.082 487.316 348.692 487.334C347.491 487.341 346.208 487.347 344.85 487.355C344.159 487.344 343.496 487.393 342.728 487.334C341.958 487.232 341.232 486.736 340.854 486.016C340.666 485.658 340.562 485.246 340.564 484.835C340.563 484.453 340.561 484.065 340.56 483.674C340.557 482.891 340.554 482.091 340.552 481.275C340.547 479.642 340.541 477.943 340.536 476.185C340.528 472.665 340.52 468.906 340.511 464.951C340.506 460.994 340.501 456.842 340.495 452.538C340.494 450.385 340.493 448.195 340.49 445.971C340.497 444.848 340.475 443.768 340.505 442.585C340.615 441.312 341.802 440.244 343.108 440.27C347.715 440.271 352.212 440.273 356.557 440.275C357.643 440.276 358.72 440.277 359.786 440.278C360.907 440.15 362.172 440.869 362.533 441.978C362.631 442.248 362.689 442.533 362.689 442.82L362.69 443.594C362.69 444.106 362.689 444.615 362.688 445.121C362.687 446.134 362.685 447.135 362.684 448.123C362.662 456.027 362.642 463.148 362.626 469.142C362.589 475.099 362.56 479.931 362.54 483.313C362.535 483.729 362.531 484.125 362.527 484.497C362.528 484.861 362.52 485.233 362.413 485.55C362.211 486.193 361.779 486.613 361.401 486.851C361.011 487.088 360.664 487.162 360.437 487.183C360.207 487.207 360.089 487.184 360.089 487.184Z" fill="#1A2E35"/>
<path d="M425.547 487.184H408.563C407.268 487.184 406.218 486.145 406.218 484.861V442.861C406.218 441.578 407.268 440.538 408.563 440.538H425.547C426.842 440.538 427.893 441.578 427.893 442.861V484.861C427.893 486.145 426.842 487.184 425.547 487.184Z" fill="#375A64"/>
<path d="M425.547 487.184C425.532 487.138 426.055 487.232 426.798 486.76C427.151 486.519 427.544 486.109 427.716 485.504C427.879 484.91 427.764 484.144 427.786 483.313C427.767 479.931 427.736 475.099 427.7 469.142C427.684 463.148 427.665 456.027 427.643 448.123C427.641 447.135 427.64 446.134 427.638 445.121C427.637 444.615 427.637 444.106 427.636 443.594L427.632 442.827C427.632 442.597 427.584 442.37 427.506 442.154C427.186 441.266 426.261 440.693 425.244 440.797C424.178 440.798 423.101 440.799 422.015 440.8C417.67 440.802 413.173 440.804 408.566 440.805C407.53 440.786 406.589 441.634 406.501 442.642C406.477 443.711 406.493 444.873 406.487 445.971C406.486 448.195 406.485 450.385 406.484 452.538C406.478 456.842 406.473 460.994 406.467 464.951C406.459 468.906 406.451 472.665 406.442 476.185C406.437 477.943 406.432 479.642 406.427 481.275C406.425 482.091 406.422 482.891 406.419 483.674C406.418 484.065 406.415 484.453 406.414 484.835C406.41 485.192 406.497 485.534 406.652 485.842C406.968 486.455 407.583 486.885 408.24 486.977C408.9 487.034 409.64 486.998 410.308 487.013C411.666 487.021 412.949 487.028 414.15 487.034C416.54 487.052 418.603 487.067 420.304 487.08C421.964 487.101 423.268 487.119 424.191 487.13C424.612 487.141 424.946 487.15 425.203 487.157C425.431 487.166 425.547 487.175 425.547 487.184C425.547 487.194 425.431 487.203 425.203 487.212C424.946 487.218 424.612 487.228 424.191 487.238C423.268 487.25 421.964 487.267 420.304 487.289C418.603 487.301 416.54 487.316 414.15 487.334C412.949 487.341 411.666 487.347 410.308 487.355C409.617 487.344 408.954 487.393 408.186 487.334C407.416 487.232 406.69 486.736 406.312 486.016C406.124 485.658 406.02 485.246 406.022 484.835C406.021 484.453 406.019 484.065 406.018 483.674C406.015 482.891 406.012 482.091 406.01 481.275C406.005 479.642 405.999 477.943 405.994 476.185C405.986 472.665 405.978 468.906 405.969 464.951C405.964 460.994 405.959 456.842 405.953 452.538C405.952 450.385 405.951 448.195 405.948 445.971C405.955 444.848 405.933 443.768 405.963 442.585C406.073 441.312 407.26 440.244 408.566 440.27C413.173 440.271 417.67 440.273 422.015 440.275C423.101 440.276 424.178 440.277 425.244 440.278C426.365 440.15 427.63 440.869 427.991 441.978C428.089 442.248 428.147 442.533 428.147 442.82L428.148 443.594C428.148 444.106 428.147 444.615 428.146 445.121C428.145 446.134 428.143 447.135 428.142 448.123C428.12 456.027 428.1 463.148 428.084 469.142C428.047 475.099 428.018 479.931 427.998 483.313C427.993 483.729 427.989 484.125 427.985 484.497C427.986 484.861 427.979 485.233 427.871 485.55C427.669 486.193 427.237 486.613 426.859 486.851C426.469 487.088 426.122 487.162 425.895 487.183C425.665 487.207 425.547 487.184 425.547 487.184Z" fill="#1A2E35"/>
<path d="M427.582 453.676C427.582 453.824 422.868 453.944 417.055 453.944C411.239 453.944 406.527 453.824 406.527 453.676C406.527 453.527 411.239 453.408 417.055 453.408C422.868 453.408 427.582 453.527 427.582 453.676Z" fill="#1A2E35"/>
<path d="M427.582 473.205C427.582 473.354 422.868 473.473 417.055 473.473C411.239 473.473 406.527 473.354 406.527 473.205C406.527 473.057 411.239 472.937 417.055 472.937C422.868 472.937 427.582 473.057 427.582 473.205Z" fill="#1A2E35"/>
<path d="M362.195 453.676C362.195 453.824 357.482 453.944 351.668 453.944C345.852 453.944 341.14 453.824 341.14 453.676C341.14 453.527 345.852 453.408 351.668 453.408C357.482 453.408 362.195 453.527 362.195 453.676Z" fill="#1A2E35"/>
<path d="M362.195 473.205C362.195 473.354 357.482 473.473 351.668 473.473C345.852 473.473 341.14 473.354 341.14 473.205C341.14 473.057 345.852 472.937 351.668 472.937C357.482 472.937 362.195 473.057 362.195 473.205Z" fill="#1A2E35"/>
</g>
<mask id="mask4_1212_89" style="mask-type:luminance" maskUnits="userSpaceOnUse" x="0" y="0" width="520" height="516">
<path d="M0 0H520V515.207H0V0Z" fill="white"/>
</mask>
<g mask="url(#mask4_1212_89)">
<path d="M282.923 204.332C282.923 204.332 309.432 210.324 312.192 229.592C315.188 250.504 309.216 292.608 309.961 299.61C310.704 306.612 310.803 312.341 310.803 312.341L364.637 340.884L353.674 355.287C353.674 355.287 305.869 353.414 293.223 344.201C280.576 334.988 277.973 323.564 278.345 313.245C278.717 302.926 278.311 246.543 278.311 246.543L282.923 204.332Z" fill="#C17560"/>
<path d="M301.243 242.253C301.373 242.345 299.339 245.247 297.154 249.015C294.955 252.777 293.44 255.974 293.294 255.91C293.229 255.881 293.524 255.043 294.11 253.731C294.694 252.421 295.581 250.643 296.685 248.747C297.788 246.852 298.897 245.201 299.749 244.044C300.602 242.884 301.185 242.211 301.243 242.253Z" fill="#7C4236"/>
<path d="M443.075 337.64C443.075 349.659 435.915 359.401 427.083 359.401C423.452 359.401 413.934 359.362 413.934 359.362C410.088 355.388 411.091 344.718 411.091 337.64C411.091 331.091 409.067 319.995 412.43 316.006C412.43 316.006 423.062 315.878 427.083 315.878C435.915 315.878 443.075 325.621 443.075 337.64Z" fill="#FF735D"/>
<mask id="mask5_1212_89" style="mask-type:luminance" maskUnits="userSpaceOnUse" x="410" y="315" width="34" height="45">
<path d="M410.487 315.878H443.075V359.401H410.487V315.878Z" fill="white"/>
</mask>
<g mask="url(#mask5_1212_89)">
<g opacity="0.300003">
<path d="M443.075 337.64C443.075 349.658 435.915 359.401 427.083 359.401C423.453 359.401 413.934 359.362 413.934 359.362C410.089 355.388 411.091 344.718 411.091 337.64C411.091 331.091 409.067 319.995 412.431 316.006C412.431 316.006 423.063 315.878 427.083 315.878C435.915 315.878 443.075 325.621 443.075 337.64Z" fill="black"/>
</g>
</g>
<path d="M426.26 337.6C426.26 349.619 420.742 359.362 413.934 359.362C407.128 359.362 401.609 349.619 401.609 337.6C401.609 325.582 407.128 315.839 413.934 315.839C420.742 315.839 426.26 325.582 426.26 337.6Z" fill="#FF735D"/>
<path d="M421.191 345.128H376.444C374.494 345.128 372.912 343.561 372.912 341.629V337.333C372.912 335.401 374.494 333.834 376.444 333.834H421.191C423.141 333.834 424.722 335.401 424.722 337.333V341.629C424.722 343.561 423.141 345.128 421.191 345.128Z" fill="#FF735D"/>
<path d="M417.025 327.535C415.842 325.472 412.994 321.661 412.994 321.661C408.685 317.496 404.862 321.131 404.862 321.131C402.739 319.396 400.161 320.03 398.398 321.974C393.531 319.485 390.893 325.331 390.893 325.331C381.507 324.799 383.578 333.834 383.578 333.834C383.578 333.834 386.225 334.051 386.247 334.264C386.605 337.738 381.632 344.443 381.632 344.443L370.97 355.287L388.14 355.017C391.135 356.071 393.886 355.816 396.105 352.738C400.831 356.18 403.055 351.911 403.055 351.911C407.504 354.872 410.111 350.396 410.111 350.396C410.111 350.396 414.586 352.521 415.98 344.056C416.487 340.968 418.207 329.597 417.025 327.535Z" fill="#C17560"/>
<path d="M393.086 343.8C393.011 343.766 393.503 342.636 394.192 340.776C394.88 338.917 395.742 336.311 396.401 333.369C396.56 332.64 396.664 331.926 396.597 331.256C396.514 330.583 396.322 329.942 396.02 329.395C395.41 328.292 394.464 327.554 393.648 327.013C391.983 325.947 390.846 325.417 390.892 325.331C390.909 325.298 391.203 325.4 391.721 325.621C392.236 325.844 392.982 326.174 393.855 326.693C394.715 327.208 395.753 327.949 396.455 329.155C396.804 329.756 397.026 330.455 397.124 331.201C397.208 331.96 397.094 332.731 396.931 333.482C396.263 336.466 395.333 339.077 394.549 340.915C393.763 342.753 393.146 343.829 393.086 343.8Z" fill="#7C4236"/>
<path d="M402.322 341.613C402.238 341.583 402.679 340.401 403.12 338.434C403.339 337.389 403.585 336.217 403.851 334.946C404.138 333.638 404.516 332.206 404.549 330.705C404.576 329.218 403.981 327.844 403.223 326.793C402.459 325.726 401.555 324.917 400.807 324.235C399.273 322.901 398.342 322.034 398.398 321.974C398.445 321.927 399.449 322.679 401.056 323.947C401.843 324.6 402.796 325.393 403.627 326.504C404.452 327.602 405.119 329.075 405.091 330.711C405.054 332.314 404.649 333.758 404.337 335.058C404.017 336.355 403.762 337.539 403.492 338.524C403.224 339.511 402.94 340.291 402.722 340.817C402.503 341.345 402.355 341.625 402.322 341.613Z" fill="#7C4236"/>
<path d="M410.136 339.673C410.064 339.652 410.365 338.441 410.908 336.502C411.198 335.484 411.524 334.343 411.876 333.106C412.214 331.841 412.519 330.402 412.21 328.956C411.906 327.508 411.103 326.271 410.232 325.31C409.353 324.345 408.386 323.633 407.558 323.069C405.88 321.963 404.775 321.353 404.821 321.275C404.838 321.243 405.131 321.361 405.644 321.606C406.156 321.853 406.892 322.221 407.767 322.751C408.635 323.285 409.655 323.98 410.6 324.976C411.533 325.964 412.408 327.269 412.74 328.847C413.077 330.437 412.726 331.962 412.358 333.237C411.971 334.523 411.589 335.653 411.274 336.612C410.637 338.523 410.208 339.695 410.136 339.673Z" fill="#7C4236"/>
<path d="M310.958 312.389C311.047 312.543 307.589 314.085 304.287 317.247C300.952 320.375 299.244 323.728 299.091 323.635C299.035 323.607 299.383 322.736 300.173 321.443C300.959 320.151 302.228 318.46 303.912 316.86C305.601 315.263 307.362 314.082 308.701 313.362C310.039 312.638 310.932 312.331 310.958 312.389Z" fill="#7C4236"/>
<path d="M382.814 339.258C382.814 351.276 375.654 361.019 366.822 361.019C363.191 361.019 353.674 360.98 353.674 360.98C349.827 357.005 350.83 346.336 350.83 339.258C350.83 332.709 348.806 321.613 352.169 317.624C352.169 317.624 362.801 317.496 366.822 317.496C375.654 317.496 382.814 327.239 382.814 339.258Z" fill="#FF735D"/>
<mask id="mask6_1212_89" style="mask-type:luminance" maskUnits="userSpaceOnUse" x="350" y="317" width="33" height="45">
<path d="M350.226 317.495H382.814V361.019H350.226V317.495Z" fill="white"/>
</mask>
<g mask="url(#mask6_1212_89)">
<g opacity="0.300003">
<path d="M382.814 339.257C382.814 351.276 375.654 361.019 366.822 361.019C363.191 361.019 353.674 360.98 353.674 360.98C349.827 357.005 350.83 346.336 350.83 339.257C350.83 332.709 348.806 321.613 352.169 317.624C352.169 317.624 362.801 317.496 366.822 317.496C375.654 317.496 382.814 327.239 382.814 339.257Z" fill="black"/>
</g>
</g>
<path d="M365.999 339.218C365.999 351.237 360.481 360.979 353.674 360.979C346.866 360.979 341.348 351.237 341.348 339.218C341.348 327.199 346.866 317.457 353.674 317.457C360.481 317.457 365.999 327.199 365.999 339.218Z" fill="#FF735D"/>
<path d="M364.197 339.218C364.187 339.218 364.176 339.135 364.162 338.971C364.149 338.776 364.134 338.538 364.114 338.248C364.098 337.611 364.012 336.675 363.885 335.475C363.793 334.874 363.692 334.21 363.582 333.489C363.411 332.775 363.298 331.983 363.046 331.162C362.616 329.508 361.968 327.652 360.926 325.77C360.383 324.845 359.778 323.89 358.982 323.032C358.225 322.146 357.255 321.38 356.139 320.84C355.024 320.303 353.707 320.069 352.408 320.313C351.106 320.555 349.887 321.269 348.857 322.214C346.77 324.12 345.369 326.861 344.434 329.787C343.499 332.732 343.074 335.94 343.046 339.216C343.074 342.493 343.498 345.703 344.434 348.648C345.369 351.574 346.77 354.316 348.857 356.222C349.887 357.167 351.107 357.881 352.408 358.123C353.708 358.367 355.025 358.134 356.14 357.597C357.255 357.057 358.226 356.29 358.983 355.403C359.778 354.546 360.384 353.59 360.926 352.665C361.969 350.784 362.616 348.928 363.046 347.273C363.298 346.454 363.411 345.661 363.582 344.947C363.692 344.225 363.793 343.562 363.885 342.962C364.012 341.76 364.098 340.826 364.114 340.189C364.134 339.897 364.149 339.66 364.162 339.465C364.176 339.302 364.187 339.218 364.197 339.218C364.206 339.218 364.213 339.302 364.217 339.465C364.219 339.661 364.221 339.899 364.224 340.192C364.242 340.832 364.191 341.773 364.095 342.984C364.03 343.587 363.933 344.257 363.837 344.991C363.68 345.713 363.58 346.516 363.34 347.348C362.933 349.027 362.304 350.915 361.262 352.847C360.719 353.799 360.109 354.783 359.296 355.678C358.521 356.599 357.517 357.415 356.333 357.997C355.153 358.579 353.727 358.844 352.32 358.587C350.911 358.332 349.606 357.573 348.521 356.589C346.325 354.597 344.891 351.788 343.928 348.805C342.967 345.803 342.532 342.543 342.504 339.216C342.533 335.89 342.968 332.631 343.929 329.629C344.892 326.647 346.326 323.838 348.521 321.847C349.605 320.863 350.909 320.104 352.32 319.849C353.726 319.592 355.152 319.858 356.333 320.439C357.516 321.021 358.52 321.836 359.295 322.758C360.108 323.653 360.719 324.637 361.262 325.588C362.304 327.52 362.932 329.409 363.34 331.088C363.58 331.92 363.68 332.722 363.837 333.445C363.933 334.178 364.029 334.848 364.095 335.452C364.191 336.664 364.242 337.605 364.224 338.244C364.221 338.537 364.219 338.775 364.217 338.971C364.213 339.135 364.206 339.218 364.197 339.218Z" fill="#1A2E35"/>
<path d="M353.311 341.451L352.569 341.504L352.665 342.823L351.638 342.897L351.541 341.577L349.089 341.751L349.018 340.771L350.875 336.628L351.982 336.549L350.265 340.475L351.487 340.388L351.403 339.21L352.398 339.14L352.483 340.316L353.225 340.265L353.311 341.451Z" fill="#1A2E35"/>
<path d="M355.301 340.73L354.861 341.431L354.95 342.661L353.936 342.733L353.454 336.066L354.468 335.994L354.741 339.768L356.084 337.722L357.293 337.635L355.985 339.789L357.774 342.461L356.545 342.548L355.301 340.73Z" fill="#1A2E35"/>
<path d="M242.963 73.9194C248.016 69.9976 248.34 61.9954 244.894 56.629C241.449 51.2626 235.205 48.2352 228.943 46.8411C219.251 44.6844 208.143 46.2414 201.131 53.2132C194.12 60.185 193.253 73.1867 200.934 79.4269C196.503 79.7701 191.824 80.1987 188.216 82.7717C184.609 85.3446 182.753 90.8604 185.585 94.2536C188.812 98.1197 195.011 96.6699 199.742 94.8832C196.632 96.8327 196.146 101.54 198.183 104.577C200.222 107.614 204.103 109.045 207.784 109.002C211.464 108.96 215.003 107.653 218.378 106.199" fill="#1A2E35"/>
<path d="M227.493 75.4156C229.321 73.2466 231.193 71.0466 233.6 69.5309C236.007 68.0162 239.075 67.266 241.752 68.2388C243.012 68.6963 244.214 69.6463 244.444 70.956C244.675 72.2656 243.465 73.7669 242.163 73.4434L241.842 73.6361C238.474 75.7309 235.064 77.7588 231.615 79.7196C230.747 80.2132 229.848 80.713 228.855 80.8449C227.863 80.9767 226.743 80.6573 226.208 79.8175C225.327 78.4296 226.433 76.6748 227.493 75.4156Z" fill="#FF735D"/>
<path d="M220.356 84.0536C232.111 73.8102 246.383 69.1414 261.87 71.4155C270.606 72.6994 273.913 75.0838 279.908 77.7876C285.903 80.4914 291.009 84.7542 293.874 90.6307C297.278 97.6107 299.844 105.223 299.418 112.964C298.978 120.915 298.533 128.918 296.632 136.655C294.731 144.392 291.268 151.93 285.551 157.527L264.855 157.697C253.681 156.254 234.573 167.185 224.167 162.902C213.761 158.62 207.003 139.406 205.594 127.87C203.715 112.471 208.601 94.2969 220.356 84.0536Z" fill="#1A2E35"/>
<path d="M259.033 193.094C260.065 186.077 261.289 177.269 261.285 177.302C261.285 177.302 277.988 178.196 285.994 158.106C289.975 148.115 293.258 131.019 295.486 116.945C297.492 104.276 289.491 85.2693 273.735 82.6335L266.862 80.6798L238.28 86.853C234.374 86.413 230.776 89.0076 230.001 92.8274L213.712 187.078L226.157 215.522L256.968 203.697L259.033 193.094Z" fill="#C17560"/>
<path d="M255.269 148.068C255.598 146.995 256.375 146.124 257.273 145.586C259.067 144.509 261.384 144.756 262.873 146.181C264.364 147.606 264.934 150.121 264.251 152.26C263.094 153.392 261.505 154.023 259.883 153.899C259.631 153.879 259.38 153.847 259.13 153.8C257.924 153.571 256.758 152.963 255.98 151.926C255.202 150.89 254.863 149.394 255.269 148.068Z" fill="#7C4236"/>
<path d="M286.323 132.567C286.056 133.989 284.622 134.938 283.119 134.69C281.619 134.442 280.614 133.092 280.88 131.67C281.146 130.249 282.581 129.298 284.08 129.546C285.584 129.793 286.589 131.146 286.323 132.567Z" fill="#1A2E35"/>
<path d="M289.509 123.185C289.097 123.46 287.39 121.514 284.488 120.882C281.598 120.211 279.137 121.221 278.902 120.799C278.781 120.61 279.264 120.057 280.339 119.592C281.401 119.127 283.103 118.822 284.908 119.226C286.712 119.634 288.085 120.628 288.808 121.494C289.547 122.369 289.709 123.065 289.509 123.185Z" fill="#1A2E35"/>
<path d="M266.905 142.852C266.928 142.686 268.8 142.773 271.804 143.046C272.562 143.133 273.297 143.141 273.534 142.668C273.827 142.177 273.695 141.317 273.526 140.385C273.228 138.456 272.917 136.433 272.588 134.315C271.331 125.689 270.595 118.662 270.945 118.615C271.297 118.568 272.602 125.521 273.86 134.147C274.152 136.269 274.433 138.294 274.698 140.229C274.792 141.126 275.061 142.178 274.436 143.195C274.114 143.7 273.482 143.977 272.978 143.999C272.471 144.039 272.053 143.955 271.681 143.896C268.706 143.406 266.879 143.017 266.905 142.852Z" fill="#1A2E35"/>
<path d="M261.284 177.301C261.284 177.301 246.942 175.093 234.803 163.668C234.803 163.668 239.066 179.752 260.54 182.432L261.284 177.301Z" fill="#7C4236"/>
<path d="M257.923 142.961C258.4 143.038 257.707 146.159 259.906 148.965C262.097 151.78 265.532 152.167 265.46 152.609C265.46 152.814 264.577 153.05 263.152 152.777C261.751 152.518 259.821 151.629 258.476 149.912C257.135 148.193 256.835 146.226 257.015 144.922C257.187 143.592 257.712 142.895 257.923 142.961Z" fill="#1A2E35"/>
<path d="M290.205 117.338C289.561 117.933 287.444 116.975 284.801 116.617C282.17 116.176 279.856 116.464 279.428 115.706C279.243 115.342 279.679 114.72 280.737 114.212C281.781 113.705 283.459 113.391 285.273 113.664C287.084 113.94 288.586 114.735 289.421 115.527C290.272 116.325 290.493 117.045 290.205 117.338Z" fill="#1A2E35"/>
<path d="M253.406 126.238C253.093 127.651 254.04 129.077 255.523 129.428C257.002 129.779 258.458 128.922 258.771 127.51C259.084 126.099 258.136 124.67 256.658 124.319C255.175 123.968 253.719 124.826 253.406 126.238Z" fill="#1A2E35"/>
<path d="M250.081 115.579C250.353 115.991 252.689 114.856 255.611 115.393C258.537 115.889 260.406 117.768 260.789 117.47C260.974 117.343 260.747 116.646 259.939 115.803C259.144 114.965 257.696 114.029 255.874 113.705C254.051 113.386 252.397 113.772 251.392 114.292C250.366 114.812 249.944 115.391 250.081 115.579Z" fill="#1A2E35"/>
<path d="M253.391 106.574C253.845 107.336 256.227 107.064 258.943 107.523C261.674 107.898 263.87 108.873 264.525 108.282C264.818 107.989 264.578 107.265 263.69 106.46C262.816 105.66 261.256 104.853 259.384 104.565C257.511 104.279 255.787 104.581 254.72 105.085C253.636 105.587 253.196 106.207 253.391 106.574Z" fill="#1A2E35"/>
<path d="M227.755 128.738C228.099 127.187 227.109 123.132 225.617 122.553C221.632 121.007 214.118 119.699 211.72 130.07C208.443 144.247 223.486 144.583 223.605 144.182C223.698 143.869 226.567 134.097 227.755 128.738Z" fill="#C17560"/>
<path d="M220.855 138.107C220.803 138.047 220.565 138.224 220.101 138.319C219.646 138.412 218.909 138.381 218.228 137.934C216.842 137.042 216.119 134.375 216.642 131.804C216.903 130.505 217.459 129.338 218.156 128.425C218.833 127.487 219.677 126.916 220.47 126.956C221.266 126.954 221.701 127.528 221.784 127.966C221.885 128.406 221.728 128.669 221.799 128.71C221.83 128.754 222.16 128.542 222.181 127.931C222.187 127.635 222.096 127.263 221.822 126.914C221.543 126.559 221.071 126.304 220.527 126.24C219.406 126.066 218.181 126.846 217.415 127.847C216.589 128.841 215.932 130.145 215.638 131.603C215.069 134.481 215.927 137.489 217.859 138.551C218.805 139.04 219.715 138.929 220.225 138.694C220.75 138.444 220.898 138.144 220.855 138.107Z" fill="#7C4236"/>
<path d="M225.02 122.497L228.064 126.874C246.434 114.427 283.712 81.8383 281.608 83.7991C281.608 83.7991 271.479 77.5919 259.354 77.6527C247.228 77.7125 223.882 79.9001 221.927 93.7375C219.972 107.576 225.02 122.497 225.02 122.497Z" fill="#1A2E35"/>
<path d="M204.542 115.896C204.519 115.885 204.643 115.613 204.902 115.104C205.164 114.597 205.603 113.873 206.264 113.007C207.584 111.286 209.932 109.048 213.429 107.261C216.889 105.403 221.463 104.173 226.56 103.454C231.655 102.684 237.308 102.366 243.038 100.966C248.791 99.6561 254.063 97.6169 258.644 95.3768C263.215 93.1057 267.094 90.608 270.18 88.2957C273.268 85.9804 275.582 83.8753 277.152 82.3956C277.878 81.6867 278.468 81.1117 278.932 80.6583C279.343 80.2637 279.567 80.0638 279.586 80.0813C279.606 80.0988 279.419 80.3317 279.042 80.7603C278.661 81.1828 278.117 81.8247 277.359 82.5996C275.846 84.1494 273.573 86.3256 270.504 88.712C267.436 91.0954 263.553 93.6621 258.953 95.9899C254.347 98.2846 249.025 100.366 243.21 101.689C237.406 103.106 231.716 103.405 226.658 104.132C221.589 104.811 217.098 105.966 213.67 107.728C210.21 109.423 207.86 111.55 206.492 113.187C205.126 114.844 204.612 115.937 204.542 115.896Z" fill="#375A64"/>
<path d="M208.373 118.84C208.373 118.84 208.423 117.643 209.456 115.801C210.454 113.969 212.605 111.611 216.013 109.947C219.404 108.207 223.943 107.532 228.857 107.237C233.787 106.975 239.169 106.49 244.634 104.977C250.088 103.481 255.105 101.409 259.362 98.9902C263.637 96.5976 267.201 93.971 270.011 91.5671C272.849 89.1837 274.858 86.9508 276.28 85.4464C276.914 84.7138 277.429 84.1162 277.839 83.6411C278.203 83.2331 278.404 83.026 278.425 83.0414C278.446 83.0569 278.284 83.2949 277.959 83.7339C277.576 84.2336 277.094 84.8622 276.503 85.635C275.141 87.2033 273.179 89.5073 270.363 91.9617C267.573 94.4368 264.006 97.1354 259.704 99.5858C255.419 102.063 250.351 104.181 244.831 105.695C239.31 107.226 233.812 107.698 228.902 107.92C224.002 108.178 219.565 108.791 216.245 110.42C212.901 111.98 210.758 114.207 209.709 115.948C208.624 117.695 208.469 118.873 208.373 118.84Z" fill="#375A64"/>
<path d="M168.406 249.284C168.987 250.397 168.987 264.124 171.608 279.526C174.23 294.927 187.562 326.366 187.562 326.366L184.807 347.707L300.623 360.813L286.685 323.868L288.214 289.073C288.214 289.073 297.077 279.341 293.332 253.366C289.587 227.39 284.166 205.088 284.166 205.088L274.853 201.151L262.958 196.781L218.516 182.994L194.184 180.14L170.86 227.762L168.406 249.284Z" fill="#C17560"/>
<path d="M175.795 296.066C175.795 296.066 184.321 290.09 204.81 289.649C225.299 289.207 285.661 299.269 285.661 299.269L287.816 291.403C287.816 291.403 302.429 269.357 291.783 243.931C280.434 216.823 284.315 204.477 284.315 204.477L274.854 201.151C274.854 201.151 265.371 219.661 257.289 224.145C248.172 229.206 231.397 228.969 216.613 209.772C206.213 196.267 206.037 181.096 206.037 181.096L194.915 180.14C194.915 180.14 192.338 208.669 186.77 221.908C181.203 235.147 167.126 262.84 167.126 262.84C167.126 262.84 173.06 292.334 175.795 296.066Z" fill="#69B99D"/>
<path d="M183.593 347.75C182.845 349.605 170.86 381.518 169.361 407.494C167.862 433.47 167.488 465.94 173.106 487.184H239.399C239.399 487.184 244.922 440.228 246.795 438.003C248.668 435.776 250.54 435.073 251.29 443.588C252.039 452.103 249.886 487.184 249.886 487.184H314.321C314.321 487.184 316.179 428.793 314.68 414.432C313.732 405.335 310.678 390.385 308.567 380.649C307.247 374.561 305.438 368.592 303.146 362.795L295.635 343.8L183.593 347.75Z" fill="#1A2E35"/>
<path d="M300.623 356.415C300.623 356.424 300.517 356.435 300.309 356.445C300.071 356.453 299.768 356.465 299.387 356.479C298.54 356.497 297.354 356.523 295.845 356.556C292.769 356.596 288.318 356.721 282.822 356.913C271.828 357.287 256.659 358.207 239.912 359.367C223.158 360.528 207.973 361.389 196.969 361.667C191.467 361.809 187.014 361.876 183.937 361.853C182.428 361.842 181.241 361.835 180.394 361.829C180.013 361.822 179.709 361.814 179.472 361.809C179.264 361.802 179.158 361.794 179.158 361.785C179.158 361.775 179.264 361.765 179.472 361.755C179.709 361.746 180.013 361.735 180.392 361.721C181.24 361.703 182.427 361.676 183.935 361.643C187.01 361.603 191.46 361.479 196.957 361.288C207.951 360.913 223.122 359.994 239.874 358.832C256.622 357.671 271.805 356.811 282.81 356.534C288.311 356.39 292.765 356.323 295.843 356.347C297.353 356.357 298.54 356.365 299.387 356.371C299.768 356.379 300.071 356.385 300.309 356.39C300.517 356.398 300.623 356.406 300.623 356.415Z" fill="#375A64"/>
<path d="M190.545 361.785C190.554 361.787 190.538 361.897 190.498 362.109C190.45 362.349 190.388 362.66 190.31 363.049C190.125 363.908 189.865 365.115 189.534 366.651C189.182 368.212 188.765 370.124 188.345 372.357C187.918 374.588 187.372 377.117 186.917 379.941C186.674 381.35 186.42 382.826 186.155 384.362C185.893 385.901 185.684 387.511 185.432 389.172C184.905 392.492 184.506 396.061 184.049 399.812C183.244 407.326 182.594 415.612 182.323 424.328C182.093 433.047 182.269 441.359 182.663 448.904C182.919 452.675 183.121 456.26 183.482 459.602C183.65 461.274 183.773 462.893 183.96 464.442C184.15 465.99 184.333 467.475 184.508 468.894C184.822 471.736 185.26 474.285 185.587 476.533C185.903 478.783 186.241 480.709 186.531 482.282C186.8 483.83 187.011 485.046 187.161 485.912C187.223 486.304 187.272 486.616 187.31 486.859C187.342 487.072 187.353 487.182 187.344 487.184C187.334 487.186 187.305 487.079 187.256 486.869C187.204 486.63 187.138 486.321 187.054 485.932C186.88 485.071 186.635 483.861 186.323 482.32C186.002 480.751 185.633 478.829 185.288 476.58C184.932 474.335 184.467 471.786 184.128 468.944C183.942 467.524 183.747 466.037 183.545 464.488C183.346 462.938 183.213 461.319 183.035 459.644C182.654 456.3 182.434 452.709 182.165 448.933C181.742 441.375 181.551 433.048 181.781 424.312C182.052 415.581 182.719 407.28 183.553 399.758C184.024 396.002 184.441 392.429 184.988 389.107C185.25 387.444 185.469 385.834 185.743 384.295C186.02 382.759 186.286 381.283 186.541 379.874C187.019 377.051 187.592 374.524 188.049 372.297C188.497 370.067 188.944 368.16 189.328 366.606C189.701 365.078 189.995 363.879 190.204 363.024C190.304 362.64 190.383 362.334 190.445 362.097C190.502 361.888 190.535 361.783 190.545 361.785Z" fill="white"/>
<path d="M184.807 362.434C184.816 362.436 184.801 362.545 184.761 362.757C184.713 362.997 184.652 363.305 184.575 363.692C184.392 364.548 184.134 365.748 183.806 367.276C183.458 368.829 183.043 370.731 182.633 372.954C182.216 375.174 181.674 377.69 181.237 380.501C181.001 381.904 180.754 383.373 180.497 384.902C180.24 386.434 180.046 388.037 179.803 389.691C179.297 392.996 178.923 396.549 178.496 400.283C177.749 407.762 177.176 416.01 176.989 424.681C176.845 433.358 177.101 441.623 177.561 449.126C177.845 452.874 178.082 456.439 178.462 459.761C178.641 461.423 178.774 463.032 178.972 464.571C179.171 466.109 179.36 467.587 179.542 468.998C179.872 471.823 180.317 474.358 180.65 476.592C180.974 478.829 181.316 480.744 181.605 482.308C181.873 483.849 182.084 485.058 182.235 485.918C182.297 486.309 182.347 486.619 182.386 486.86C182.416 487.073 182.427 487.182 182.418 487.184C182.41 487.186 182.379 487.08 182.331 486.871C182.279 486.632 182.212 486.325 182.128 485.94C181.953 485.082 181.709 483.879 181.397 482.347C181.076 480.787 180.704 478.875 180.351 476.64C179.99 474.408 179.517 471.874 179.163 469.049C178.97 467.637 178.768 466.16 178.557 464.62C178.347 463.081 178.204 461.47 178.016 459.806C177.615 456.481 177.36 452.912 177.063 449.158C176.575 441.644 176.303 433.364 176.447 424.671C176.636 415.984 177.225 407.721 178 400.232C178.441 396.492 178.832 392.935 179.358 389.628C179.611 387.973 179.816 386.369 180.085 384.837C180.354 383.307 180.613 381.839 180.859 380.435C181.322 377.626 181.891 375.111 182.337 372.894C182.776 370.674 183.221 368.777 183.6 367.231C183.971 365.711 184.262 364.518 184.469 363.668C184.568 363.285 184.647 362.98 184.707 362.744C184.764 362.537 184.797 362.432 184.807 362.434Z" fill="white"/>
<path d="M295.667 345.128C295.633 345.142 295.352 344.565 294.87 343.507C294.365 342.365 293.691 340.845 292.875 339C291.208 335.18 288.934 329.878 286.436 323.971L286.417 323.927L286.415 323.878C286.405 323.63 286.393 323.363 286.382 323.094C286.108 316.517 285.89 310.562 285.76 306.251C285.708 304.16 285.665 302.437 285.633 301.144C285.63 300.593 285.628 300.136 285.626 299.754C285.63 299.437 285.642 299.269 285.66 299.269C285.679 299.268 285.704 299.434 285.735 299.75C285.765 300.129 285.801 300.587 285.843 301.136C285.919 302.426 286.02 304.147 286.143 306.236C286.371 310.543 286.649 316.496 286.924 323.072C286.934 323.341 286.946 323.609 286.956 323.857L286.935 323.764C289.428 329.673 291.645 334.999 293.222 338.856C293.975 340.728 294.595 342.27 295.061 343.428C295.484 344.509 295.701 345.113 295.667 345.128Z" fill="#7C4236"/>
<path d="M283.687 249.938C283.657 250.083 279.284 249.353 273.92 248.306C268.552 247.259 264.227 246.293 264.256 246.146C264.285 246.001 268.657 246.733 274.024 247.779C279.389 248.826 283.716 249.793 283.687 249.938Z" fill="white"/>
<path d="M136.964 434.364C136.964 445.164 128.127 453.921 117.227 453.921C106.325 453.921 97.4884 445.164 97.4884 434.364C97.4884 423.563 106.325 414.808 117.227 414.808C128.127 414.808 136.964 423.563 136.964 434.364Z" fill="#FF735D"/>
<mask id="mask7_1212_89" style="mask-type:luminance" maskUnits="userSpaceOnUse" x="97" y="414" width="40" height="40">
<path d="M97.4884 414.808H136.964V453.92H97.4884V414.808Z" fill="white"/>
</mask>
<g mask="url(#mask7_1212_89)">
<g opacity="0.300003">
<path d="M136.964 434.364C136.964 445.164 128.127 453.921 117.227 453.921C106.325 453.921 97.4885 445.164 97.4885 434.364C97.4885 423.564 106.325 414.808 117.227 414.808C128.127 414.808 136.964 423.564 136.964 434.364Z" fill="black"/>
</g>
</g>
<path d="M143.25 434.364C143.25 445.164 134.413 453.921 123.513 453.921C112.612 453.921 103.775 445.164 103.775 434.364C103.775 423.563 112.612 414.808 123.513 414.808C134.413 414.808 143.25 423.563 143.25 434.364Z" fill="#FF735D"/>
<path d="M112.456 398.005C112.456 398.739 112.438 411.512 110.214 418.674C107.99 425.835 106.878 433.18 107.805 435.934C108.731 438.688 119.109 448.788 121.519 449.706C123.929 450.624 145.056 448.788 145.056 448.788L152.283 424.366C152.283 424.366 143.943 412.614 140.423 406.371C136.902 400.127 133.718 392.86 134.105 388.506C134.492 384.153 112.456 398.005 112.456 398.005Z" fill="#C17560"/>
<path d="M160.466 436.236C160.466 447.036 151.629 455.792 140.728 455.792C129.827 455.792 120.99 447.036 120.99 436.236C120.99 425.436 129.827 416.679 140.728 416.679C151.629 416.679 160.466 425.436 160.466 436.236Z" fill="#FF735D"/>
<path d="M183.967 180.378C178.127 181.119 172.475 183.043 167.54 186.223C159.499 191.407 149.781 201.363 146.303 220.01C139.98 253.913 136.632 283.764 132.913 291.503C129.194 299.241 121.383 313.983 120.639 329.46C119.896 344.938 112.457 398.005 112.457 398.005H131.798C131.798 398.005 149.651 343.095 156.346 325.407C163.041 307.718 161.3 307.284 165.763 290.7C170.227 274.117 179.518 242.223 179.518 242.223L190.668 208.542L194.184 180.141L183.967 180.378Z" fill="#C17560"/>
<path d="M180.53 209.303C180.596 209.28 181.041 210.232 181.633 211.823C182.22 213.414 182.938 215.656 183.466 218.197C183.992 220.74 184.224 223.081 184.316 224.773C184.405 226.467 184.374 227.516 184.305 227.519C184.224 227.522 184.12 226.48 183.934 224.805C183.745 223.13 183.455 220.819 182.936 218.305C182.414 215.793 181.762 213.557 181.27 211.942C180.774 210.33 180.456 209.331 180.53 209.303Z" fill="#7C4236"/>
<mask id="mask8_1212_89" style="mask-type:luminance" maskUnits="userSpaceOnUse" x="120" y="416" width="41" height="40">
<path d="M120.99 416.68H160.466V455.791H120.99V416.68Z" fill="white"/>
</mask>
<g mask="url(#mask8_1212_89)">
<g opacity="0.300003">
<path d="M160.466 436.236C160.466 447.036 151.629 455.792 140.728 455.792C129.827 455.792 120.99 447.036 120.99 436.236C120.99 425.436 129.827 416.679 140.728 416.679C151.629 416.679 160.466 425.436 160.466 436.236Z" fill="black"/>
</g>
</g>
<path d="M167.412 436.236C167.412 447.036 158.575 455.792 147.673 455.792C136.773 455.792 127.936 447.036 127.936 436.236C127.936 425.436 136.773 416.679 147.673 416.679C158.575 416.679 167.412 425.436 167.412 436.236Z" fill="#FF735D"/>
<path d="M148.345 438.257L147.432 438.32L147.538 439.775L146.272 439.865L146.167 438.411L143.146 438.625L143.069 437.547L145.394 432.964L146.755 432.868L144.607 437.208L146.112 437.101L146.019 435.805L147.244 435.718L147.338 437.014L148.251 436.949L148.345 438.257Z" fill="#1A2E35"/>
<path d="M150.796 437.446L150.248 438.22L150.346 439.575L149.097 439.664L148.566 432.321L149.815 432.233L150.115 436.389L151.788 434.122L153.277 434.017L151.646 436.4L153.823 439.328L152.309 439.436L150.796 437.446Z" fill="#1A2E35"/>
<path d="M164.205 436.236C164.115 436.244 164.226 434.774 163.585 432.262C163.287 431.004 162.682 429.519 161.738 427.949C160.786 426.384 159.418 424.752 157.559 423.368C155.707 421.997 153.374 420.833 150.684 420.366C148.011 419.916 144.997 420.001 142.128 421.085C140.684 421.583 139.292 422.335 138.012 423.284C137.351 423.735 136.774 424.298 136.169 424.84C135.621 425.441 135.046 426.028 134.575 426.71C132.574 429.348 131.447 432.739 131.414 436.233C131.446 439.729 132.573 443.121 134.574 445.76C135.045 446.441 135.62 447.029 136.167 447.63C136.773 448.172 137.35 448.735 138.011 449.186C139.291 450.136 140.684 450.888 142.128 451.386C144.997 452.47 148.012 452.555 150.685 452.105C153.375 451.637 155.708 450.474 157.56 449.102C159.419 447.719 160.786 446.086 161.739 444.522C162.682 442.951 163.287 441.466 163.586 440.209C164.225 437.697 164.115 436.227 164.205 436.236C164.214 436.236 164.219 436.325 164.219 436.501C164.215 436.708 164.211 436.966 164.206 437.282C164.206 437.628 164.187 438.052 164.103 438.55C164.035 439.049 163.971 439.628 163.79 440.259C163.518 441.541 162.936 443.06 161.999 444.676C161.055 446.284 159.679 447.969 157.793 449.404C155.913 450.827 153.528 452.042 150.767 452.542C148.025 453.025 144.921 452.954 141.958 451.85C140.467 451.343 139.027 450.573 137.704 449.598C137.02 449.134 136.421 448.556 135.796 447.997C135.229 447.379 134.636 446.774 134.147 446.071C132.075 443.351 130.903 439.844 130.873 436.233C130.904 432.624 132.076 429.117 134.148 426.398C134.637 425.696 135.23 425.091 135.797 424.473C136.422 423.915 137.021 423.336 137.705 422.873C139.027 421.897 140.467 421.128 141.958 420.621C144.921 419.518 148.023 419.446 150.766 419.928C153.527 420.429 155.912 421.644 157.792 423.066C159.678 424.501 161.054 426.187 161.998 427.795C162.935 429.41 163.518 430.93 163.79 432.211C163.971 432.842 164.035 433.422 164.103 433.921C164.187 434.418 164.206 434.843 164.206 435.189C164.211 435.505 164.215 435.763 164.219 435.97C164.219 436.146 164.214 436.236 164.205 436.236Z" fill="#1A2E35"/>
</g>
</svg>
